<?xml version="1.0" encoding="UTF-8"?>
<svg id="Layer_2" xmlns="http://www.w3.org/2000/svg" viewBox="0 0 311.13 97.14">
  <defs>
    <style>
      .cls-1 {
        fill: #231f20;
      }
    </style>
  </defs>
  <g id="Layer_1-2" data-name="Layer_1">
    <g>
      <g>
        <path d="M10.84,1.87c8.22,0,19.8-1.87,28.02-1.87,13.17,0,25.22,4.11,25.22,17.19,0,24.38-42.22,22.51-42.22,32.88,0,2.15,1.59,2.43,2.71,2.43,3.92,0,10.46-5.7,19.43-5.7,14.29,0,25.96,9.15,25.96,23.35,0,16.16-11.11,26.99-31.01,26.99-10.84,0-17.47-1.87-27.74-1.87H0v-.94c8.04,0,8.59-6.63,8.59-25.03V27.84C8.59,9.43,8.04,2.8,0,2.8v-.94h10.84ZM16.53,92.84c5.7,2.06,10.18,2.99,17.1,2.99,17.37,0,28.3-9.53,28.3-25.03,0-11.21-6.35-22.98-18.02-22.98-7.85,0-14.2,5.61-19.71,5.61-1.68,0-3.27-.94-3.27-3.18,0-12.24,35.12-14.01,35.12-32.88,0-11.58-11.21-16.07-22.6-16.07-6.07,0-11.48.94-16.91,2.62v88.92Z"/>
        <path d="M128.48,38.86c0-7.56-8.78-10.65-16.34-10.65-8.88,0-17.47,3.08-17.47,10.83,0,3.55,2.9,5.14,3.74,4.3.93,2.8-2.15,5.42-5.23,5.42-4.02,0-6.72-3.46-6.72-7.47,0-9.25,11.02-14.01,25.68-14.01,10.56,0,24.28,4.39,24.28,11.77,0,15.04-46.98,1.4-46.98,37.92,0,9.71,6.16,17.09,15.32,17.09,10.08,0,22.88-10.37,22.88-37.55,0-2.06-.19-4.21-1.59-4.58,0-.56,1.03-1.31,2.52-1.31,6.82,0,7.67,7.1,7.67,14.57,0,8.31.09,9.71.09,19.61,0,7.84,4.58,9.53,7.1,9.53v.94h-6.63c-4.95,0-8.87-4.58-8.87-11.58v-15.97c-3.37,16.07-9.53,29.42-25.87,29.42-12.05,0-20.83-8.69-20.83-20.74,0-32.88,47.26-22.14,47.26-37.55Z"/>
        <path d="M148.13,95.27v-.94c8.04,0,8.59-6.63,8.59-25.03V27.84c0-18.4-.56-25.03-8.59-25.03v-.94h16.63v38.21c5.6-8.41,13.45-12.8,22.69-12.8,15.6,0,27.36,11.02,27.36,28.95,0,24.85-15.88,39.04-37.46,39.04h-29.23ZM164.76,91.81c3.17,1.49,6.72,2.52,11.48,2.52,15.97,0,30.54-15.78,30.54-36.14s-12.33-28.68-23.35-28.68c-9.62,0-18.68,6.54-18.68,24.94v37.36Z"/>
        <path d="M223.26,95.27v-.94c8.04,0,8.59-6.63,8.59-25.03v-14.2c0-18.4-.56-25.03-8.59-25.03v-.93h16.63v40.16c0,18.4.56,25.03,8.59,25.03v.94h-25.22ZM235.41,10.65c3.45,0,6.26,2.8,6.26,6.26s-2.81,6.26-6.26,6.26-6.26-2.8-6.26-6.26,2.81-6.26,6.26-6.26Z"/>
      </g>
      <g>
        <path class="cls-1" d="M283.48,59.93c17.92,2.62,27.66,9.03,27.66,18.72s-9.03,16.23-21.16,16.23c-18.49,0-33.16-15.05-33.16-34.03,0-20.03,12.28-34.03,30.06-34.03,12.7,0,23.28,7.59,23.28,16.76,0,10.47-9.59,16.36-26.53,16.36h-.14ZM282.77,58.62c13.26,0,20.32-5.11,20.32-14.53s-6.91-15.97-16.23-15.97c-12.14,0-20.88,12.57-21.59,30.5h17.5ZM265.27,60.85c0,18.85,11.43,32.34,27.38,32.34,9.45,0,17.07-6.55,17.07-14.53,0-12.04-15.52-18.59-44.45-18.72v.92Z"/>
        <path class="cls-1" d="M277.85,19.82s12.97-21.62,18.47-16.33c5.5,5.29-18.47,16.33-18.47,16.33"/>
      </g>
    </g>
  </g>
</svg>